#N canvas 220 130 794 327 10;
#X obj 42 200 packOSC;
#X msg 69 65 send /quit;
#X msg 153 65 send /restart;
#X msg 252 66 send /dumpReport;
#X obj 672 183 udpreceive 9000;
#X obj 672 212 unpackOSC;
#X obj 672 242 route /ping;
#X obj 672 272 bng 15 250 50 0 empty empty empty 17 7 0 10 -262144
-1 -1;
#X msg 408 48 send /next lundi;
#X msg 407 69 send /next mardi;
#X msg 407 90 send /next mercredi;
#X msg 407 111 send /next jeudi;
#X msg 407 131 send /next vendredi;
#X msg 407 151 send /next samedi;
#X msg 407 173 send /next dimanche;
#X msg 117 224 connect 127.0.0.1 7000;
#X obj 38 274 udpsend;
#X connect 0 0 16 0;
#X connect 1 0 0 0;
#X connect 2 0 0 0;
#X connect 3 0 0 0;
#X connect 4 0 5 0;
#X connect 5 0 6 0;
#X connect 6 0 7 0;
#X connect 8 0 0 0;
#X connect 9 0 0 0;
#X connect 10 0 0 0;
#X connect 11 0 0 0;
#X connect 12 0 0 0;
#X connect 13 0 0 0;
#X connect 14 0 0 0;
#X connect 15 0 16 0;
