#N canvas 366 23 902 721 10;
#X declare -lib moocow;
#X msg 262 155 close;
#X msg 143 138 devices;
#X msg 210 148 open 2;
#X obj 212 217 comport 5 115200;
#X obj 345 108 nbx 5 14 -1e+37 1e+37 0 0 empty empty empty 0 -8 0 10
-262144 -1 -1 -49 256;
#X obj 496 52 nbx 5 14 -1e+37 1e+37 0 0 empty empty empty 0 -8 0 10
-262144 -1 -1 18 256;
#X msg 613 132 8 \$1;
#X obj 622 67 nbx 5 14 -1e+37 1e+37 0 0 empty empty empty 0 -8 0 10
-262144 -1 -1 -1 256;
#X msg 560 128 6 1 1;
#X msg 432 109 5 1 1;
#X obj 209 297 route 2;
#X obj 209 322 route 1 2;
#X obj 206 364 unpack f f f f;
#X obj 175 430 nbx 5 14 -1e+37 1e+37 0 0 empty empty empty 0 -8 0 10
-262144 -1 -1 8 256;
#X obj 175 448 nbx 5 14 -1e+37 1e+37 0 0 empty empty empty 0 -8 0 10
-262144 -1 -1 22 256;
#X obj 231 432 nbx 5 14 -1e+37 1e+37 0 0 empty empty empty 0 -8 0 10
-262144 -1 -1 2 256;
#X obj 231 450 nbx 5 14 -1e+37 1e+37 0 0 empty empty empty 0 -8 0 10
-262144 -1 -1 0 256;
#X obj 325 368 unpack f f f f;
#X obj 294 434 nbx 5 14 -1e+37 1e+37 0 0 empty empty empty 0 -8 0 10
-262144 -1 -1 28 256;
#X obj 294 452 nbx 5 14 -1e+37 1e+37 0 0 empty empty empty 0 -8 0 10
-262144 -1 -1 22 256;
#X obj 350 436 nbx 5 14 -1e+37 1e+37 0 0 empty empty empty 0 -8 0 10
-262144 -1 -1 22 256;
#X obj 350 454 nbx 5 14 -1e+37 1e+37 0 0 empty empty empty 0 -8 0 10
-262144 -1 -1 0 256;
#X obj 219 238 repack 9;
#X obj 310 263 select 255;
#X msg 494 126 7 \$1 \$1;
#X obj 103 331 route 1 2;
#X obj 20 341 bng 30 250 50 0 empty empty empty 17 7 0 20 -262144 -1
-1;
#X obj 54 341 bng 30 250 50 0 empty empty empty 17 7 0 10 -262144 -1
-1;
#X msg 175 61 0 1 1;
#X obj 110 298 route 1;
#X text 172 39 state;
#N canvas 0 22 454 304 gemwin 0;
#X obj 132 136 gemwin;
#X obj 67 89 outlet;
#X obj 67 10 inlet;
#X obj 67 41 route create;
#X msg 67 70 set destroy;
#X msg 182 68 set create;
#X msg 132 112 create \, 1;
#X msg 238 112 destroy;
#N canvas 87 154 247 179 Gem.init 0;
#X obj 59 46 loadbang;
#X msg 118 81 reset;
#X obj 118 113 outlet;
#X obj 59 65 t b b;
#X connect 0 0 3 0;
#X connect 1 0 2 0;
#X connect 3 1 1 0;
#X restore 289 80 pd Gem.init;
#X connect 2 0 3 0;
#X connect 3 0 4 0;
#X connect 3 0 6 0;
#X connect 3 1 5 0;
#X connect 3 1 7 0;
#X connect 4 0 1 0;
#X connect 5 0 1 0;
#X connect 6 0 0 0;
#X connect 7 0 0 0;
#X connect 8 0 0 0;
#X restore 25 103 pd gemwin;
#X msg 25 79 create;
#N canvas 504 155 707 464 visu 0;
#X obj 74 102 gemhead;
#X obj 75 276 square 0.1;
#X obj 75 227 translateXYZ;
#X obj 174 92 unpack f f;
#X obj 344 103 gemhead;
#X obj 337 158 color 1 1 1;
#X obj 343 221 translateXYZ;
#X obj 74 162 color 1 0 0;
#X obj 48 15 inlet;
#X obj 48 43 route 1 2 3 4;
#X obj 346 264 rectangle 1 1.5;
#X msg 395 195 -1.5;
#X obj 294 34 loadbang;
#X obj 472 114 gemhead;
#X obj 465 169 color 1 1 1;
#X obj 471 232 translateXYZ;
#X obj 474 275 rectangle 1 1.5;
#X msg 523 206 -1.5;
#X msg 252 253 draw line;
#X obj 52 352 gemhead;
#X obj 53 526 square 0.1;
#X obj 53 477 translateXYZ;
#X obj 152 342 unpack f f;
#X obj 52 412 color 1 0 0;
#X msg 494 207 0;
#X msg 366 196 -2;
#X connect 0 0 7 0;
#X connect 2 0 1 0;
#X connect 3 0 2 1;
#X connect 3 1 2 2;
#X connect 4 0 5 0;
#X connect 5 0 6 0;
#X connect 6 0 10 0;
#X connect 7 0 2 0;
#X connect 8 0 9 0;
#X connect 9 0 3 0;
#X connect 9 1 22 0;
#X connect 11 0 6 2;
#X connect 12 0 25 0;
#X connect 12 0 11 0;
#X connect 12 0 18 0;
#X connect 12 0 24 0;
#X connect 12 0 17 0;
#X connect 13 0 14 0;
#X connect 14 0 15 0;
#X connect 15 0 16 0;
#X connect 17 0 15 2;
#X connect 18 0 10 0;
#X connect 18 0 16 0;
#X connect 19 0 23 0;
#X connect 21 0 20 0;
#X connect 22 0 21 1;
#X connect 22 1 21 2;
#X connect 23 0 21 0;
#X connect 24 0 15 1;
#X connect 25 0 6 1;
#X restore 270 675 pd visu;
#X obj 242 605 pack f f;
#X obj 240 643 prepend 1;
#X obj 187 564 - 1;
#X obj 236 523 * 0.1;
#X obj 287 525 * -0.1;
#X obj 370 533 * 0.1;
#X obj 421 535 * -0.1;
#X obj 427 606 pack f f;
#X obj 10 390 nbx 5 14 -1e+37 1e+37 0 0 empty empty empty 0 -8 0 10
-262144 -1 -1 6 256;
#X obj 70 390 nbx 5 14 -1e+37 1e+37 0 0 empty empty empty 0 -8 0 10
-262144 -1 -1 0 256;
#X obj 411 646 prepend 2;
#X obj 522 271 import moocow;
#X obj 513 302 any2bytes;
#X msg 350 133 4 4 \$1;
#X connect 0 0 3 0;
#X connect 1 0 3 0;
#X connect 2 0 3 0;
#X connect 3 0 22 0;
#X connect 3 0 23 0;
#X connect 4 0 47 0;
#X connect 5 0 24 0;
#X connect 6 0 3 0;
#X connect 7 0 6 0;
#X connect 8 0 3 0;
#X connect 9 0 3 0;
#X connect 10 0 11 0;
#X connect 11 0 12 0;
#X connect 11 1 17 0;
#X connect 12 0 13 0;
#X connect 12 1 14 0;
#X connect 12 2 15 0;
#X connect 12 3 16 0;
#X connect 15 0 37 0;
#X connect 16 0 38 0;
#X connect 17 0 18 0;
#X connect 17 1 19 0;
#X connect 17 2 20 0;
#X connect 17 3 21 0;
#X connect 20 0 39 0;
#X connect 21 0 40 0;
#X connect 22 0 10 0;
#X connect 22 0 29 0;
#X connect 23 0 22 0;
#X connect 24 0 3 0;
#X connect 25 0 26 0;
#X connect 25 0 42 0;
#X connect 25 1 27 0;
#X connect 25 1 43 0;
#X connect 28 0 3 0;
#X connect 29 0 25 0;
#X connect 31 0 32 0;
#X connect 32 0 31 0;
#X connect 34 0 35 0;
#X connect 35 0 33 0;
#X connect 36 0 34 0;
#X connect 37 0 36 0;
#X connect 38 0 34 1;
#X connect 39 0 41 0;
#X connect 40 0 41 1;
#X connect 41 0 44 0;
#X connect 44 0 33 0;
#X connect 47 0 3 0;
